HIERARCHY
ROOT root
{
	OFFSET	0.000000	0.000000	0.000000
	CHANNELS 6 Xposition Yposition Zposition Zrotation Yrotation Xrotation
	JOINT lhipjoint
	{
		OFFSET	0.000000	0.000000	0.000000
		CHANNELS 3 Zrotation Yrotation Xrotation
		JOINT lfemur
		{
			OFFSET	1.645494	-1.708786	0.845660
			CHANNELS 3 Zrotation Yrotation Xrotation
			JOINT ltibia
			{
				OFFSET	2.249633	-6.180820	0.000000
				CHANNELS 3 Zrotation Yrotation Xrotation
				JOINT lfoot
				{
					OFFSET	2.717752	-7.466968	0.000000
					CHANNELS 3 Zrotation Yrotation Xrotation
					JOINT ltoes
					{
						OFFSET	0.187679	-0.515643	2.247368
						CHANNELS 3 Zrotation Yrotation Xrotation
						End Site
						{
							OFFSET	0.000000	-0.000000	1.159350
						}
					}
				}
			}
		}
	}
	JOINT rhipjoint
	{
		OFFSET	0.000000	0.000000	0.000000
		CHANNELS 3 Zrotation Yrotation Xrotation
		JOINT rfemur
		{
			OFFSET	-1.588298	-1.708789	0.845662
			CHANNELS 3 Zrotation Yrotation Xrotation
			JOINT rtibia
			{
				OFFSET	-2.250064	-6.182003	0.000000
				CHANNELS 3 Zrotation Yrotation Xrotation
				JOINT rfoot
				{
					OFFSET	-2.728293	-7.495929	0.000000
					CHANNELS 3 Zrotation Yrotation Xrotation
					JOINT rtoes
					{
						OFFSET	-0.215414	-0.591846	2.106425
						CHANNELS 3 Zrotation Yrotation Xrotation
						End Site
						{
							OFFSET	-0.000000	-0.000000	1.098380
						}
					}
				}
			}
		}
	}
	JOINT lowerback
	{
		OFFSET	0.000000	0.000000	0.000000
		CHANNELS 3 Zrotation Yrotation Xrotation
		JOINT upperback
		{
			OFFSET	0.031419	2.104964	-0.110379
			CHANNELS 3 Zrotation Yrotation Xrotation
			JOINT thorax
			{
				OFFSET	-0.018626	2.108971	-0.069557
				CHANNELS 3 Zrotation Yrotation Xrotation
				JOINT lowerneck
				{
					OFFSET	-0.034945	2.110023	-0.018114
					CHANNELS 3 Zrotation Yrotation Xrotation
					JOINT upperneck
					{
						OFFSET	-0.022675	1.732376	0.004511
						CHANNELS 3 Zrotation Yrotation Xrotation
						JOINT head
						{
							OFFSET	-0.058084	1.547243	-0.617485
							CHANNELS 3 Zrotation Yrotation Xrotation
							End Site
							{
								OFFSET	-0.013955	1.714682	-0.210818
							}
						}
					}
				}
				JOINT lclavicle
				{
					OFFSET	-0.034945	2.110023	-0.018114
					CHANNELS 3 Zrotation Yrotation Xrotation
					JOINT lhumerus
					{
						OFFSET	3.448981	0.502979	0.219205
						CHANNELS 3 Zrotation Yrotation Xrotation
						JOINT lradius
						{
							OFFSET	5.419170	-0.000000	-0.000000
							CHANNELS 3 Zrotation Yrotation Xrotation
							JOINT lwrist
							{
								OFFSET	2.443730	-0.000000	0.000000
								CHANNELS 3 Zrotation Yrotation Xrotation
								JOINT lhand
								{
									OFFSET	1.221860	-0.000000	0.000000
									CHANNELS 3 Zrotation Yrotation Xrotation
									JOINT lfingers
									{
										OFFSET	0.727502	-0.000000	0.000000
										CHANNELS 3 Zrotation Yrotation Xrotation
										End Site
										{
											OFFSET	0.586531	-0.000000	0.000000
										}
									}
								}
								JOINT lthumb
								{
									OFFSET	1.221860	-0.000000	0.000000
									CHANNELS 3 Zrotation Yrotation Xrotation
									End Site
									{
										OFFSET	0.595487	-0.000000	0.595487
									}
								}
							}
						}
					}
				}
				JOINT rclavicle
				{
					OFFSET	-0.034945	2.110023	-0.018114
					CHANNELS 3 Zrotation Yrotation Xrotation
					JOINT rhumerus
					{
						OFFSET	-3.230153	0.558301	0.310511
						CHANNELS 3 Zrotation Yrotation Xrotation
						JOINT rradius
						{
							OFFSET	-5.589760	-0.000102	0.000137
							CHANNELS 3 Zrotation Yrotation Xrotation
							JOINT rwrist
							{
								OFFSET	-2.480600	-0.000000	0.000000
								CHANNELS 3 Zrotation Yrotation Xrotation
								JOINT rhand
								{
									OFFSET	-1.240300	-0.000000	0.000000
									CHANNELS 3 Zrotation Yrotation Xrotation
									JOINT rfingers
									{
										OFFSET	-0.816009	-0.000000	0.000000
										CHANNELS 3 Zrotation Yrotation Xrotation
										End Site
										{
											OFFSET	-0.657887	-0.000000	0.000000
										}
									}
								}
								JOINT rthumb
								{
									OFFSET	-1.240300	-0.000000	0.000000
									CHANNELS 3 Zrotation Yrotation Xrotation
									End Site
									{
										OFFSET	-0.667932	-0.000000	0.667932
									}
								}
							}
						}
					}
				}
			}
		}
	}
}
MOTION
Frames:	8
Frame Time:	0.008333
	-0.445920	16.566401	-0.621031	176.959000	-6.595699	-162.774017	0.000000	0.000000	0.000000	-30.556164	-11.651240	-20.319269	2.799162	10.362612	30.159134	3.311645	9.887300	-38.815010	0.413232	-4.126398	-11.432542	0.000000	0.000000	0.000000	11.818383	19.790411	-58.776611	-5.253126	-13.663304	41.905102	-2.244803	-21.156588	-42.002182	-8.419483	-16.419287	54.059952	-4.020390	-2.095600	-4.288540	0.070337	-2.643300	-0.710335	2.166450	-1.359640	1.856070	-0.653263	2.433630	-14.090399	1.566780	-2.169970	40.444798	-0.064689	-2.381950	17.162201	-0.653263	-0.000000	0.000000	-86.633087	12.420760	15.972854	10.459029	-17.454363	-1.609904	0.000000	0.000000	3.258753	19.309689	20.622389	7.035193	-7.125019	0.000000	0.000000	-9.369023	51.482159	-1.506907	-0.653263	-0.000000	0.000000	85.842232	-12.712961	33.727619	-8.677637	14.645202	-1.117210	0.000000	0.000000	-5.547385	-9.135958	16.585802	-2.628358	7.125019	0.000000	0.000000	12.405178	-13.471157	9.401680
	-0.443750	16.556101	-0.670491	176.768997	-6.924579	-162.690002	0.000000	0.000000	0.000000	-30.701220	-11.664523	-20.142586	2.793365	10.352792	30.126896	3.280866	9.960279	-38.706924	0.476068	-4.424938	-12.275341	0.000000	0.000000	0.000000	11.976336	19.584892	-58.530010	-5.276990	-13.689096	42.006035	-2.696037	-19.977514	-42.952324	-8.712450	-16.619074	55.090271	-4.016490	-2.211600	-4.338029	0.004891	-2.801920	-0.816842	2.087220	-1.437800	1.781240	-0.524741	2.463940	-13.922998	1.444260	-2.147059	40.465000	-0.140402	-2.381550	17.127399	-0.524741	0.000000	-0.000000	-86.301582	12.497554	17.791344	10.103302	-16.900999	-1.504841	0.000000	0.000000	3.596787	18.476629	20.665379	6.725370	-7.125019	0.000000	0.000000	-10.203525	51.384697	-1.618834	-0.524741	0.000000	-0.000000	85.777534	-12.909427	34.726200	-8.918427	15.030323	-1.178876	0.000000	0.000000	-6.632934	-8.523652	16.180979	-2.391601	7.125019	0.000000	0.000000	12.818863	-13.911999	9.609125
	-0.438183	16.541401	-0.726327	176.749008	-7.213089	-162.492004	0.000000	0.000000	0.000000	-30.624926	-11.727163	-20.162992	2.802518	10.368291	30.177788	3.243500	10.093005	-38.600437	0.541166	-4.713261	-13.092508	0.000000	0.000000	0.000000	12.046352	19.779879	-58.272560	-5.275055	-13.687012	41.997868	-3.011544	-19.268559	-43.723877	-8.505371	-16.478666	54.363258	-3.935771	-2.286410	-4.636800	-0.006516	-2.897680	-0.895505	2.013730	-1.487390	1.868981	-0.418903	2.460260	-13.874800	1.397970	-2.196860	40.515606	-0.191703	-2.399300	17.143602	-0.418903	0.000000	0.000000	-85.927200	12.647321	19.806648	9.904385	-16.589882	-1.447530	0.000000	0.000000	3.987945	17.329008	20.929970	6.360064	-7.125019	0.000000	0.000000	-11.425354	51.458893	-1.837741	-0.418903	0.000000	0.000000	85.740295	-12.991424	35.588375	-9.066653	15.266584	-1.217607	0.000000	0.000000	-7.422624	-8.034881	15.863755	-2.209759	7.125019	0.000000	0.000000	13.151470	-14.255463	9.773766
	-0.436958	16.526699	-0.793815	176.714996	-7.042690	-162.386993	0.000000	0.000000	0.000000	-30.692913	-11.546352	-20.084366	2.806084	10.374322	30.197599	3.324597	10.004507	-38.942776	0.560006	-4.793278	-13.319889	0.000000	0.000000	0.000000	12.190359	20.104591	-57.946690	-5.278496	-13.690722	42.012402	-2.815431	-20.092167	-43.550533	-8.321078	-16.350407	53.711102	-3.913420	-2.234690	-4.992050	-0.064893	-2.819890	-0.961549	1.933830	-1.451890	1.990210	-0.424448	2.457920	-13.714301	1.418250	-2.227190	40.494801	-0.186868	-2.418820	17.091602	-0.424448	-0.000000	0.000000	-85.618706	13.022113	21.894812	9.863408	-16.525631	-1.435853	-0.000000	-0.000003	4.503924	16.454475	20.725321	5.966925	-7.125019	0.000000	0.000000	-12.200074	51.107700	-1.859236	-0.424448	-0.000000	0.000000	85.693169	-13.100454	36.506416	-9.166546	15.425458	-1.244045	0.000000	-0.000002	-8.090914	-7.908284	15.376436	-2.109418	7.125019	0.000000	0.000000	13.251905	-14.741217	9.711432
	-0.433900	16.512899	-0.853455	176.563995	-7.004700	-162.024994	0.000000	0.000000	0.000000	-30.803755	-11.507042	-20.284430	2.810843	10.382360	30.224014	3.342389	10.020330	-39.037098	0.567241	-4.823626	-13.406196	0.000000	0.000000	0.000000	12.366928	20.065599	-57.984005	-5.272866	-13.684647	41.988609	-2.496573	-21.054911	-43.001320	-8.089388	-16.184607	52.884003	-3.987280	-2.284690	-5.434240	-0.092959	-2.877760	-1.151050	1.928400	-1.484530	2.047200	-0.620364	2.487520	-13.509800	1.499630	-2.175420	40.462898	-0.105611	-2.429450	17.021502	-0.620364	0.000000	0.000000	-85.379776	13.470637	24.069603	9.818539	-16.455238	-1.423115	0.000000	0.000003	5.100389	15.672952	20.113817	5.511228	-7.125019	0.000000	0.000000	-12.723692	50.370472	-1.708220	-0.620364	0.000000	0.000000	85.553635	-13.314571	37.319141	-9.396765	15.790494	-1.305986	0.000000	-0.000002	-8.690315	-7.625936	14.957782	-1.979230	7.125019	0.000000	0.000000	13.455710	-15.168157	9.742790
	-0.439614	16.498699	-0.924480	176.388000	-7.146799	-161.667999	0.000000	0.000000	0.000000	-30.954422	-11.587475	-20.362991	2.822266	10.401623	30.287336	3.354090	9.963085	-39.061375	0.600378	-4.960086	-13.794762	0.000000	0.000000	0.000000	12.429699	19.827629	-57.991928	-5.254348	-13.664628	41.910282	-2.393553	-21.295046	-42.768608	-8.066031	-16.167604	52.800167	-3.960600	-2.394680	-6.087100	-0.126265	-3.005150	-1.212400	1.842550	-1.555820	2.352980	-0.866740	2.526630	-13.647200	1.660110	-2.143990	40.612301	0.010027	-2.442190	17.142702	-0.866740	-0.000000	0.000000	-85.059799	13.793086	26.817587	9.746501	-16.342072	-1.402781	-0.000000	-0.000003	5.294915	14.957669	19.649672	5.133470	-7.125019	0.000000	0.000000	-13.234712	49.796867	-1.589846	-0.866740	-0.000000	0.000000	85.478638	-13.337573	37.640965	-9.503551	15.959297	-1.335195	0.000000	-0.000002	-8.628394	-7.288413	15.028878	-1.899491	7.125019	0.000000	0.000000	13.677809	-15.117929	9.928589
	-0.435244	16.484900	-0.997983	176.201004	-7.291329	-161.492996	0.000000	0.000000	0.000000	-31.101290	-11.468164	-20.316502	2.839072	10.429873	30.380306	3.351112	9.777971	-38.944633	0.631615	-5.085146	-14.151572	0.000000	0.000000	0.000000	12.123652	20.309837	-57.681236	-5.222089	-13.629618	41.773552	-2.432432	-21.923767	-43.481850	-8.058741	-16.162287	52.773983	-4.128880	-2.510310	-6.635250	-0.143909	-3.124840	-1.173800	1.881860	-1.625000	2.713860	-1.036210	2.552240	-13.728700	1.820040	-2.154350	40.721401	0.106211	-2.459280	17.228601	-1.036210	0.000000	0.000000	-84.719231	14.064512	29.456165	9.665919	-16.215305	-1.380192	0.000000	0.000000	5.598583	14.468677	18.787846	4.750581	-7.125019	0.000000	0.000000	-13.384299	48.868019	-1.298093	-1.036210	0.000000	0.000000	85.375122	-13.231519	38.373146	-9.557391	16.044281	-1.350040	0.000000	0.000000	-8.969756	-6.992948	15.052661	-1.824568	7.125019	0.000000	0.000000	13.873569	-15.111415	10.081617
	-0.424612	16.458599	-1.052560	175.962006	-6.958041	-160.718994	0.000000	0.000000	0.000000	-31.241993	-11.727283	-21.014103	2.854799	10.456210	30.467073	3.374114	9.686531	-39.004921	0.624631	-5.057484	-14.072585	0.000000	0.000000	0.000000	11.428557	21.336588	-58.138161	-5.183352	-13.587353	41.608929	-2.478709	-22.582125	-44.250217	-7.775684	-15.951765	51.750645	-4.393341	-2.429440	-7.573390	-0.256180	-2.970200	-1.308800	1.891770	-1.563060	3.093520	-1.204440	2.474080	-13.794099	2.004180	-2.270020	40.669498	0.201395	-2.498430	17.223297	-1.204440	-0.000000	0.000000	-84.292778	14.183408	31.470968	9.638702	-16.172449	-1.372599	0.000000	0.000003	6.585588	13.644574	17.662813	4.212438	-7.125019	0.000000	0.000000	-13.762578	47.636909	-0.911795	-1.204440	-0.000000	0.000000	85.397461	-12.982728	39.022705	-9.597633	16.107725	-1.361184	0.000000	-0.000002	-9.828744	-6.479005	14.478282	-1.626337	7.125019	0.000000	0.000000	14.243014	-15.699087	10.181426
